<?xml version="1.0" standalone="no"?>
<!DOCTYPE svg PUBLIC "-//W3C//DTD SVG 20010904//EN"
 "http://www.w3.org/TR/2001/REC-SVG-20010904/DTD/svg10.dtd">
<svg version="1.0" xmlns="http://www.w3.org/2000/svg"
 width="48.000000pt" height="48.000000pt" viewBox="0 0 48.000000 48.000000"
 preserveAspectRatio="xMidYMid meet">

<g transform="translate(0.000000,48.000000) scale(0.100000,-0.100000)"
fill="#000000" stroke="none">
<path d="M93 418 c3 -10 35 -13 117 -13 82 0 114 3 118 13 3 9 -25 12 -118 12
-93 0 -121 -3 -117 -12z"/>
<path d="M353 418 c2 -7 10 -13 17 -13 7 0 15 6 18 13 2 7 -5 12 -18 12 -13 0
-20 -5 -17 -12z"/>
<path d="M39 353 c-10 -12 -14 -52 -14 -154 0 -149 5 -165 54 -171 33 -4 38
18 6 26 l-25 6 0 140 0 140 180 0 180 0 0 -139 c0 -117 -2 -140 -16 -145 -9
-3 -61 -6 -116 -6 -75 0 -99 -3 -95 -12 3 -9 35 -13 115 -13 151 0 147 -5 147
174 0 102 -4 142 -14 154 -12 15 -39 17 -201 17 -162 0 -189 -2 -201 -17z"/>
<path d="M180 290 c-11 -7 -15 -29 -15 -90 0 -61 4 -83 15 -90 22 -14 40 -12
40 5 0 8 -4 15 -10 15 -6 0 -10 30 -10 70 l0 70 50 -31 c28 -17 50 -34 50 -39
0 -5 -16 -18 -35 -30 -63 -39 -40 -55 26 -18 67 37 63 58 -22 111 -66 41 -67
41 -89 27z"/>
<path d="M133 38 c5 -17 29 -17 35 0 2 7 -5 12 -18 12 -13 0 -20 -5 -17 -12z"/>
</g>
</svg>
