<?xml version="1.0" encoding="UTF-8"?>
<!DOCTYPE svg PUBLIC "-//W3C//DTD SVG 1.1//EN" "http://www.w3.org/Graphics/SVG/1.1/DTD/svg11.dtd">
<svg xmlns="http://www.w3.org/2000/svg" version="1.1" width="64px" height="64px" style="shape-rendering:geometricPrecision; text-rendering:geometricPrecision; image-rendering:optimizeQuality; fill-rule:evenodd; clip-rule:evenodd" xmlns:xlink="http://www.w3.org/1999/xlink">
<g><path style="opacity:0.796" fill="#000000" d="M 24.5,5.5 C 47.9787,4.14483 58.812,15.1448 57,38.5C 51.3638,53.5732 40.5305,59.7398 24.5,57C 9.07429,51.5481 2.90762,40.7147 6,24.5C 9.01741,14.9839 15.1841,8.65054 24.5,5.5 Z M 25.5,10.5 C 44.981,9.14709 53.8144,18.1471 52,37.5C 51.5272,39.779 50.5272,41.779 49,43.5C 44.2892,38.4291 38.4559,36.4291 31.5,37.5C 24.5441,36.4291 18.7108,38.4291 14,43.5C 6.82682,28.5149 10.6602,17.5149 25.5,10.5 Z M 28.5,18.5 C 36.4863,17.998 38.4863,21.1647 34.5,28C 26.424,28.8047 24.424,25.638 28.5,18.5 Z M 31.5,41.5 C 35.2197,42.1789 38.8863,43.1789 42.5,44.5C 43.6139,45.723 43.7805,47.0563 43,48.5C 35.3333,53.8333 27.6667,53.8333 20,48.5C 19.2195,47.0563 19.3861,45.723 20.5,44.5C 24.2192,43.2222 27.8859,42.2222 31.5,41.5 Z"/></g>
<g><path style="opacity:0.781" fill="#000000" d="M 26.5,13.5 C 38.3244,11.8236 43.1577,16.8236 41,28.5C 37.3449,33.2745 32.5116,34.7745 26.5,33C 21.7255,29.3449 20.2255,24.5116 22,18.5C 23.3657,16.6383 24.8657,14.9717 26.5,13.5 Z M 28.5,18.5 C 24.424,25.638 26.424,28.8047 34.5,28C 38.4863,21.1647 36.4863,17.998 28.5,18.5 Z"/></g>
</svg>
