<?xml version="1.0" encoding="UTF-8"?>
<!DOCTYPE svg PUBLIC "-//W3C//DTD SVG 1.1//EN" "http://www.w3.org/Graphics/SVG/1.1/DTD/svg11.dtd">
<svg xmlns="http://www.w3.org/2000/svg" version="1.1" width="96px" height="96px" style="shape-rendering:geometricPrecision; text-rendering:geometricPrecision; image-rendering:optimizeQuality; fill-rule:evenodd; clip-rule:evenodd" xmlns:xlink="http://www.w3.org/1999/xlink">
<g><path style="opacity:0.98" fill="#000000" d="M 12.5,15.5 C 35.8357,15.3334 59.169,15.5 82.5,16C 84.3333,17.1667 85.8333,18.6667 87,20.5C 87.6667,38.5 87.6667,56.5 87,74.5C 85.8333,76.3333 84.3333,77.8333 82.5,79C 59.1667,79.6667 35.8333,79.6667 12.5,79C 10.6667,77.8333 9.16667,76.3333 8,74.5C 7.33333,56.5 7.33333,38.5 8,20.5C 9.36569,18.6383 10.8657,16.9717 12.5,15.5 Z M 17.5,23.5 C 37.5028,23.3334 57.5028,23.5 77.5,24C 78,24.5 78.5,25 79,25.5C 79.6667,40.1667 79.6667,54.8333 79,69.5C 78.5,70 78,70.5 77.5,71C 57.5,71.6667 37.5,71.6667 17.5,71C 17,70.5 16.5,70 16,69.5C 15.3333,54.8333 15.3333,40.1667 16,25.5C 16.7172,24.9558 17.2172,24.2891 17.5,23.5 Z"/></g>
<g><path style="opacity:0.916" fill="#000000" d="M 40.5,33.5 C 42.1992,33.3398 43.8659,33.5065 45.5,34C 48.9895,36.9113 52.6562,39.578 56.5,42C 61.8333,45.6667 61.8333,49.3333 56.5,53C 52.2275,56.288 47.7275,59.1214 43,61.5C 41.8926,61.4148 40.8926,61.0814 40,60.5C 39.1965,51.4221 39.3631,42.4221 40.5,33.5 Z"/></g>
</svg>
