<?xml version="1.0" standalone="no"?>
<!DOCTYPE svg PUBLIC "-//W3C//DTD SVG 20010904//EN"
 "http://www.w3.org/TR/2001/REC-SVG-20010904/DTD/svg10.dtd">
<svg version="1.0" xmlns="http://www.w3.org/2000/svg"
 width="512.000000pt" height="512.000000pt" viewBox="0 0 512.000000 512.000000"
 preserveAspectRatio="xMidYMid meet">

<g transform="translate(0.000000,512.000000) scale(0.100000,-0.100000)"
fill="#000000" stroke="none">
<path d="M2417 4944 c-161 -29 -302 -93 -432 -198 -163 -130 -273 -301 -332
-518 -17 -58 -18 -132 -18 -868 0 -736 1 -810 18 -868 59 -217 169 -388 332
-518 423 -339 1040 -263 1365 167 110 147 172 307 190 495 12 129 12 1319 0
1448 -19 190 -79 347 -190 495 -217 287 -579 429 -933 365z m358 -334 c172
-54 305 -170 385 -335 67 -140 65 -114 65 -910 0 -780 0 -780 -55 -902 -101
-222 -307 -365 -550 -380 -298 -18 -581 189 -655 482 -22 89 -22 1501 0 1590
48 189 201 366 376 436 137 54 298 61 434 19z"/>
<path d="M895 2706 c-42 -18 -83 -69 -91 -113 -4 -20 -4 -84 0 -142 24 -407
187 -791 462 -1089 282 -306 664 -502 1086 -557 l47 -6 3 -269 c3 -253 4 -270
24 -296 39 -53 71 -69 134 -69 63 0 95 16 134 69 20 26 21 43 24 296 l3 268
82 12 c244 35 512 134 707 260 488 316 799 869 804 1427 1 132 -5 151 -68 197
-39 29 -133 29 -172 0 -59 -43 -67 -64 -76 -196 -26 -388 -162 -693 -423 -953
-207 -208 -437 -332 -733 -397 -140 -31 -424 -31 -564 0 -295 65 -527 190
-733 397 -262 261 -398 567 -423 953 -9 131 -17 153 -74 195 -33 25 -113 32
-153 13z"/>
</g>
</svg>
