<?xml version="1.0" encoding="UTF-8"?>
<!DOCTYPE svg PUBLIC "-//W3C//DTD SVG 1.1//EN" "http://www.w3.org/Graphics/SVG/1.1/DTD/svg11.dtd">
<svg xmlns="http://www.w3.org/2000/svg" version="1.1" width="96px" height="96px" style="shape-rendering:geometricPrecision; text-rendering:geometricPrecision; image-rendering:optimizeQuality; fill-rule:evenodd; clip-rule:evenodd" xmlns:xlink="http://www.w3.org/1999/xlink">
<g><path style="opacity:0.865" fill="#000000" d="M 56.5,3.5 C 75.7919,1.63034 85.2919,10.297 85,29.5C 84.171,33.1612 82.671,36.4946 80.5,39.5C 87.5226,50.1401 86.8559,60.3068 78.5,70C 66.3262,76.9209 53.9929,83.5876 41.5,90C 20.7049,94.859 10.2049,86.6923 10,65.5C 10.829,61.8388 12.329,58.5054 14.5,55.5C 6.73921,43.1668 8.40587,32.3334 19.5,23C 31.9262,16.456 44.2596,9.956 56.5,3.5 Z M 58.5,12.5 C 72.4897,11.6486 77.9897,17.9819 75,31.5C 72.9936,34.6717 70.4936,37.3383 67.5,39.5C 78.4488,47.3198 79.1155,55.8198 69.5,65C 58.5,70.6667 47.5,76.3333 36.5,82C 22.496,83.332 16.996,77.1653 20,63.5C 22.0064,60.3283 24.5064,57.6617 27.5,55.5C 16.5512,47.6802 15.8845,39.1802 25.5,30C 36.6639,24.3024 47.6639,18.469 58.5,12.5 Z"/></g>
<g><path style="opacity:0.896" fill="#000000" d="M 39.5,35.5 C 46.4784,38.9888 53.1451,42.9888 59.5,47.5C 53.3717,51.7361 47.0384,55.7361 40.5,59.5C 39.5023,51.5277 39.169,43.5277 39.5,35.5 Z"/></g>
</svg>
