<?xml version="1.0" encoding="UTF-8"?>
<!DOCTYPE svg PUBLIC "-//W3C//DTD SVG 1.1//EN" "http://www.w3.org/Graphics/SVG/1.1/DTD/svg11.dtd">
<svg xmlns="http://www.w3.org/2000/svg" version="1.1" width="96px" height="96px" style="shape-rendering:geometricPrecision; text-rendering:geometricPrecision; image-rendering:optimizeQuality; fill-rule:evenodd; clip-rule:evenodd" xmlns:xlink="http://www.w3.org/1999/xlink">
<g><path style="opacity:0.851" fill="#000000" d="M 15.5,15.5 C 18.1456,17.4789 20.4789,19.8122 22.5,22.5C 11.3667,35.5669 9.53335,49.9002 17,65.5C 18.6427,67.9768 20.476,70.3102 22.5,72.5C 20.517,74.9837 18.3504,77.3171 16,79.5C 3.86878,66.3047 0.202115,50.9714 5,33.5C 7.49793,26.8542 10.9979,20.8542 15.5,15.5 Z"/></g>
<g><path style="opacity:0.855" fill="#000000" d="M 78.5,15.5 C 92.1494,30.3263 95.316,47.3263 88,66.5C 85.7399,71.3561 82.7399,75.6895 79,79.5C 76.6496,77.3171 74.483,74.9837 72.5,72.5C 83.6333,59.4331 85.4666,45.0998 78,29.5C 76.3573,27.0232 74.524,24.6898 72.5,22.5C 74.5227,20.1472 76.5227,17.8138 78.5,15.5 Z"/></g>
<g><path style="opacity:0.855" fill="#000000" d="M 26.5,27.5 C 29.4073,28.7341 31.7407,30.7341 33.5,33.5C 26.8333,42.8333 26.8333,52.1667 33.5,61.5C 31.8333,63.8333 29.8333,65.8333 27.5,67.5C 21.5334,62.2229 18.8667,55.5563 19.5,47.5C 19.0612,39.8144 21.3945,33.1478 26.5,27.5 Z"/></g>
<g><path style="opacity:0.855" fill="#000000" d="M 66.5,27.5 C 69.9039,29.5769 72.4039,32.5769 74,36.5C 76,43.8333 76,51.1667 74,58.5C 72.3821,61.9429 70.2154,64.9429 67.5,67.5C 65.1667,65.8333 63.1667,63.8333 61.5,61.5C 68.1667,52.1667 68.1667,42.8333 61.5,33.5C 63.1897,31.4807 64.8564,29.4807 66.5,27.5 Z"/></g>
<g><path style="opacity:0.929" fill="#000000" d="M 42.5,35.5 C 55.3202,34.1527 60.8202,39.8194 59,52.5C 55.3449,59.0702 49.8449,61.2368 42.5,59C 35.9298,55.3449 33.7632,49.8449 36,42.5C 37.6941,39.6424 39.8607,37.309 42.5,35.5 Z"/></g>
</svg>
